<?xml version="1.0" standalone="no"?>
<!DOCTYPE svg PUBLIC "-//W3C//DTD SVG 20010904//EN"
 "http://www.w3.org/TR/2001/REC-SVG-20010904/DTD/svg10.dtd">
<svg version="1.0" xmlns="http://www.w3.org/2000/svg"
 width="900.000000pt" height="1050.000000pt" viewBox="0 0 900.000000 1050.000000"
 preserveAspectRatio="xMidYMid meet">
<metadata>
Created by potrace 1.10, written by Peter Selinger 2001-2011
</metadata>
<g transform="translate(0.000000,1050.000000) scale(0.100000,-0.100000)"
fill="#000000" stroke="none">
<path d="M5496 9638 c-14 -19 -16 -72 -16 -379 0 -292 3 -359 14 -368 21 -18
736 -17 747 1 14 22 11 742 -3 756 -9 9 -105 12 -369 12 l-358 0 -15 -22z"/>
<path d="M4486 7618 c-14 -19 -16 -73 -16 -380 0 -345 1 -359 20 -378 19 -19
33 -20 370 -20 l351 0 24 25 25 24 0 345 0 344 -26 31 -26 31 -353 0 -354 0
-15 -22z"/>
<path d="M5505 7615 l-25 -24 0 -355 c0 -353 0 -355 22 -376 21 -19 33 -20
365 -20 330 0 344 1 363 20 19 19 20 33 20 378 0 307 -2 361 -16 380 l-15 22
-345 0 -345 0 -24 -25z"/>
<path d="M5496 6598 c-14 -19 -16 -72 -16 -384 0 -321 2 -363 16 -368 24 -9
727 -7 742 2 9 7 12 91 10 388 l-3 379 -367 3 -367 2 -15 -22z"/>
<path d="M5860 5603 c-338 -3 -345 -3 -362 -24 -16 -19 -18 -53 -18 -374 0
-328 1 -353 18 -368 17 -15 57 -17 375 -17 342 0 357 1 367 19 6 13 10 152 10
385 0 351 -1 366 -19 376 -11 5 -21 9 -23 8 -2 -2 -158 -4 -348 -5z"/>
<path d="M5500 4580 c-19 -19 -20 -33 -20 -379 0 -317 2 -360 16 -372 13 -10
91 -13 368 -14 193 -1 359 3 369 7 16 8 17 36 17 374 0 233 -4 372 -10 385
-10 18 -25 19 -365 19 -342 0 -356 -1 -375 -20z"/>
<path d="M2459 3554 l-24 -26 -3 -316 c-2 -174 0 -336 3 -359 11 -76 -7 -73
399 -73 326 0 365 2 377 17 11 13 15 88 17 369 2 305 1 358 -13 384 l-16 30
-358 0 -358 0 -24 -26z"/>
<path d="M5505 3555 l-25 -24 0 -364 c0 -269 3 -366 12 -375 17 -17 729 -17
746 0 17 17 17 759 0 776 -9 9 -103 12 -360 12 l-349 0 -24 -25z"/>
<path d="M2485 2542 c-6 -4 -21 -20 -33 -36 -22 -28 -22 -34 -22 -345 0 -179
4 -332 10 -352 6 -23 19 -40 36 -47 32 -15 686 -17 714 -2 36 19 40 63 40 402
0 275 -2 334 -15 358 l-16 30 -352 0 c-193 0 -357 -4 -362 -8z"/>
<path d="M5501 2524 c-20 -26 -21 -38 -21 -380 l0 -353 27 -21 c26 -20 34 -21
371 -18 327 3 344 4 358 22 22 31 21 722 -2 754 l-15 22 -349 0 -349 0 -20
-26z"/>
<path d="M3484 1526 c-18 -14 -19 -31 -22 -379 -3 -325 -1 -366 13 -381 15
-14 58 -16 374 -16 295 0 361 2 370 14 9 10 11 114 9 381 -3 350 -4 367 -22
381 -29 21 -693 21 -722 0z"/>
<path d="M4486 1518 c-14 -19 -16 -73 -16 -385 0 -348 1 -363 19 -373 26 -13
710 -14 745 0 l26 10 0 354 0 354 -26 31 -26 31 -353 0 -354 0 -15 -22z"/>
</g>
</svg>
